HIERARCHY
ROOT hip
{
  OFFSET 0 0 0
  CHANNELS 6 Xposition Yposition Zposition Zrotation Yrotation Xrotation
  JOINT abdomen
  {
    OFFSET 0 20.6881 -0.73152
    CHANNELS 3 Zrotation Xrotation Yrotation
    JOINT chest
    {
      OFFSET 0 11.7043 -0.48768
      CHANNELS 3 Zrotation Xrotation Yrotation
      JOINT neck
      {
        OFFSET 0 22.1894 -2.19456
        CHANNELS 3 Zrotation Xrotation Yrotation
        JOINT head
        {
          OFFSET -0.24384 7.07133 1.2192
          CHANNELS 3 Zrotation Xrotation Yrotation
          JOINT leftEye
          {
            OFFSET 4.14528 8.04674 8.04672
            CHANNELS 3 Zrotation Xrotation Yrotation
            End Site
            {
              OFFSET 1 0 0
            }
          }
          JOINT rightEye
          {
            OFFSET -3.6576 8.04674 8.04672
            CHANNELS 3 Zrotation Xrotation Yrotation
            End Site
            {
              OFFSET 1 0 0
            }
          }
        }
      }
      JOINT rCollar
      {
        OFFSET -2.68224 19.2634 -4.8768
        CHANNELS 3 Zrotation Xrotation Yrotation
        JOINT rShldr
        {
          OFFSET -8.77824 -1.95073 1.46304
          CHANNELS 3 Zrotation Xrotation Yrotation
          JOINT rForeArm
          {
            OFFSET -28.1742 -1.7115 0.48768
            CHANNELS 3 Zrotation Xrotation Yrotation
            JOINT rHand
            {
              OFFSET -22.5879 0.773209 7.07136
              CHANNELS 3 Zrotation Xrotation Yrotation
              JOINT rThumb1
              {
                OFFSET -1.2192 -0.487915 3.41376
                CHANNELS 3 Zrotation Xrotation Yrotation
                JOINT rThumb2
                {
                  OFFSET -3.37035 -0.52449 3.41376
                  CHANNELS 3 Zrotation Xrotation Yrotation
                  End Site
                  {
                    OFFSET -1.78271 -1.18214 1.43049
                  }
                }
              }
              JOINT rIndex1
              {
                OFFSET -7.75947 0.938293 5.60832
                CHANNELS 3 Zrotation Xrotation Yrotation
                JOINT rIndex2
                {
                  OFFSET -2.54057 -0.884171 1.56538
                  CHANNELS 3 Zrotation Xrotation Yrotation
                  End Site
                  {
                    OFFSET -1.62519 -0.234802 1.16502
                  }
                }
              }
              JOINT rMid1
              {
                OFFSET -8.24714 1.18213 3.41376
                CHANNELS 3 Zrotation Xrotation Yrotation
                JOINT rMid2
                {
                  OFFSET -3.10165 -0.590103 1.0647
                  CHANNELS 3 Zrotation Xrotation Yrotation
                  End Site
                  {
                    OFFSET -2.48547 -0.328903 0.83742
                  }
                }
              }
              JOINT rRing1
              {
                OFFSET -8.82822 0.546677 1.51678
                CHANNELS 3 Zrotation Xrotation Yrotation
                JOINT rRing2
                {
                  OFFSET -2.60934 -0.819778 -0.0198488
                  CHANNELS 3 Zrotation Xrotation Yrotation
                  End Site
                  {
                    OFFSET -2.33842 -0.294052 0.168128
                  }
                }
              }
              JOINT rPinky1
              {
                OFFSET -8.27202 -0.0477905 -0.4584
                CHANNELS 3 Zrotation Xrotation Yrotation
                JOINT rPinky2
                {
                  OFFSET -1.82734 -0.647385 -0.700984
                  CHANNELS 3 Zrotation Xrotation Yrotation
                  End Site
                  {
                    OFFSET -1.69225 -0.51767 -0.607171
                  }
                }
              }
            }
          }
        }
      }
      JOINT lCollar
      {
        OFFSET 2.68224 19.2634 -4.8768
        CHANNELS 3 Zrotation Xrotation Yrotation
        JOINT lShldr
        {
          OFFSET 8.77824 -1.95073 1.46304
          CHANNELS 3 Zrotation Xrotation Yrotation
          JOINT lForeArm
          {
            OFFSET 28.1742 -1.7115 0.48768
            CHANNELS 3 Zrotation Xrotation Yrotation
            JOINT lHand
            {
              OFFSET 22.5879 0.773209 7.07136
              CHANNELS 3 Zrotation Xrotation Yrotation
              JOINT lThumb1
              {
                OFFSET 1.2192 -0.487915 3.41376
                CHANNELS 3 Zrotation Xrotation Yrotation
                JOINT lThumb2
                {
                  OFFSET 3.37035 -0.52449 3.41376
                  CHANNELS 3 Zrotation Xrotation Yrotation
                  End Site
                  {
                    OFFSET 1.78271 -1.18214 1.43049
                  }
                }
              }
              JOINT lIndex1
              {
                OFFSET 7.75947 0.938293 5.60832
                CHANNELS 3 Zrotation Xrotation Yrotation
                JOINT lIndex2
                {
                  OFFSET 2.54057 -0.884171 1.56538
                  CHANNELS 3 Zrotation Xrotation Yrotation
                  End Site
                  {
                    OFFSET 1.62519 -0.234802 1.16502
                  }
                }
              }
              JOINT lMid1
              {
                OFFSET 8.24714 1.18213 3.41376
                CHANNELS 3 Zrotation Xrotation Yrotation
                JOINT lMid2
                {
                  OFFSET 3.10165 -0.590103 1.0647
                  CHANNELS 3 Zrotation Xrotation Yrotation
                  End Site
                  {
                    OFFSET 2.48547 -0.328903 0.83742
                  }
                }
              }
              JOINT lRing1
              {
                OFFSET 8.82822 0.546677 1.51678
                CHANNELS 3 Zrotation Xrotation Yrotation
                JOINT lRing2
                {
                  OFFSET 2.60934 -0.819778 -0.0198488
                  CHANNELS 3 Zrotation Xrotation Yrotation
                  End Site
                  {
                    OFFSET 2.33842 -0.294052 0.168128
                  }
                }
              }
              JOINT lPinky1
              {
                OFFSET 8.27202 -0.0477905 -0.4584
                CHANNELS 3 Zrotation Xrotation Yrotation
                JOINT lPinky2
                {
                  OFFSET 1.82734 -0.647385 -0.700984
                  CHANNELS 3 Zrotation Xrotation Yrotation
                  End Site
                  {
                    OFFSET 1.69225 -0.51767 -0.607171
                  }
                }
              }
            }
          }
        }
      }
    }
  }
  JOINT rButtock
  {
    OFFSET -8.77824 4.35084 1.2192
    CHANNELS 3 Zrotation Xrotation Yrotation
    JOINT rThigh
    {
      OFFSET 0 -1.70687 -2.19456
      CHANNELS 3 Zrotation Xrotation Yrotation
      JOINT rShin
      {
        OFFSET 0 -36.8199 0.73152
        CHANNELS 3 Zrotation Xrotation Yrotation
        JOINT rFoot
        {
          OFFSET 0.73152 -45.1104 -5.12064
          CHANNELS 3 Zrotation Xrotation Yrotation
          End Site
          {
            OFFSET -1.1221 -3.69964 12.103
          }
        }
      }
    }
  }
  JOINT lButtock
  {
    OFFSET 8.77824 4.35084 1.2192
    CHANNELS 3 Zrotation Xrotation Yrotation
    JOINT lThigh
    {
      OFFSET 0 -1.70687 -2.19456
      CHANNELS 3 Zrotation Xrotation Yrotation
      JOINT lShin
      {
        OFFSET 0 -36.8199 0.73152
        CHANNELS 3 Zrotation Xrotation Yrotation
        JOINT lFoot
        {
          OFFSET -0.73152 -45.1104 -5.12064
          CHANNELS 3 Zrotation Xrotation Yrotation
          End Site
          {
            OFFSET 1.1221 -3.69964 12.103
          }
        }
      }
    }
  }
}
MOTION
Frames:	9
Frame Time:	0.00833333
28.4522 80.5864 113.731 -2.588 1.7711 10.8593 1.22563 -15.1473 1.10354 -0.210277 -4.69936 0.264217 -24.8132 34.1991 -11.1988 67.1384 -38.8554 -7.87224 -0.0 0.0 0.0 -0.0 0.0 0.0 -2.9611e-14 2.15782e-13 2.75581e-14 81.5097 40.8252 2.40838 -24.5784 -20.2192 51.4937 -0.208161 -12.8865 -1.84258 3.51522e-10 -8.41126e-09 2.16337e-09 5.8217e-10 -1.44309e-08 3.74107e-09 3.5153e-10 -8.41128e-09 2.16337e-09 7.73091 5.47488 0.417314 3.51525e-10 -8.41126e-09 2.16338e-09 2.90554 0.965183 0.102902 3.51532e-10 -8.41126e-09 2.16337e-09 10.2786 0.731801 0.0259123 3.51518e-10 -8.41126e-09 2.16338e-09 2.22167 -0.733487 -0.20892 -2.95543e-14 2.1578e-13 2.74762e-14 -84.503 47.4245 6.73969 26.9769 -26.2608 -61.2959 4.60616 -50.3807 9.77436 -2.49312e-09 -1.38766e-08 -1.07012e-09 -4.24693e-09 -2.36467e-08 -1.93789e-09 -2.49312e-09 -1.38766e-08 -1.07013e-09 -7.73091 5.47488 -0.417314 -2.49312e-09 -1.38766e-08 -1.07013e-09 -2.90554 0.965183 -0.102902 -2.49313e-09 -1.38766e-08 -1.07013e-09 -10.2786 0.731801 -0.0259123 -2.49311e-09 -1.38766e-08 -1.07014e-09 -2.22167 -0.733487 0.20892 -2.03217e-16 0.0 -3.88251e-19 5.99186 -39.3917 12.8884 -0.186725 30.2047 0.464165 1.90043 -4.11233 16.4315 2.03217e-16 0.0 3.88251e-19 0.438889 0.248646 2.01242 -0.005438 8.45366 -0.313641 0.151913 -16.7423 -0.950676
28.4257 80.5478 113.791 -2.5578 1.7816 10.8419 1.17887 -15.253 1.07502 -0.215407 -4.68476 0.257115 -24.787 34.2033 -11.2208 67.2002 -38.9277 -7.84856 -0.0 0.0 0.0 -0.0 0.0 0.0 1.30204e-14 1.92425e-13 -1.28775e-14 81.3754 40.6282 2.57905 -24.6574 -20.3795 51.7598 -0.215906 -13.1163 -1.87664 2.06247e-10 -6.16784e-09 1.61812e-09 3.38779e-10 -1.05816e-08 2.7965e-09 2.06254e-10 -6.16785e-09 1.61811e-09 7.73091 5.47488 0.417314 2.0625e-10 -6.16783e-09 1.61812e-09 2.90554 0.965183 0.102902 2.06255e-10 -6.16784e-09 1.61812e-09 10.2786 0.731801 0.0259123 2.06241e-10 -6.16783e-09 1.61812e-09 2.22167 -0.733487 -0.20892 1.30958e-14 1.92423e-13 -1.30173e-14 -84.1968 47.4758 6.32685 27.0089 -26.3673 -61.4654 4.63182 -50.4752 9.80761 -1.80997e-09 -1.01089e-08 -6.73831e-10 -3.08658e-09 -1.72423e-08 -1.22917e-09 -1.80997e-09 -1.01089e-08 -6.73833e-10 -7.73091 5.47488 -0.417314 -1.80997e-09 -1.01089e-08 -6.73838e-10 -2.90554 0.965183 -0.102902 -1.80997e-09 -1.01089e-08 -6.73838e-10 -10.2786 0.731801 -0.0259123 -1.80996e-09 -1.01089e-08 -6.73846e-10 -2.22167 -0.733487 0.20892 -2.03217e-16 0.0 -3.88251e-19 6.05029 -39.4476 13.0383 -0.189513 30.4286 0.468576 1.90483 -4.20636 16.2648 2.03217e-16 0.0 3.88251e-19 0.426904 0.250531 1.94905 -0.00730922 8.55806 -0.317499 0.177373 -16.8202 -0.871906
28.4029 80.5087 113.855 -2.5196 1.8067 10.8247 1.13411 -15.3567 1.04432 -0.218256 -4.67195 0.249467 -24.7645 34.2055 -11.243 67.26 -39.0046 -7.82308 -0.0 0.0 0.0 -0.0 0.0 0.0 5.91651e-14 1.54755e-13 -5.15085e-14 81.2265 40.4131 2.77075 -24.7338 -20.5361 52.0207 -0.224313 -13.3637 -1.91335 1.72565e-11 -3.43446e-09 9.72932e-10 2.08592e-11 -5.88731e-09 1.67891e-09 1.72624e-11 -3.43447e-09 9.72927e-10 7.73091 5.47488 0.417314 1.72586e-11 -3.43446e-09 9.72928e-10 2.90554 0.965183 0.102902 1.72619e-11 -3.43446e-09 9.72925e-10 10.2786 0.731801 0.0259123 1.72484e-11 -3.43445e-09 9.72927e-10 2.22167 -0.733487 -0.20892 5.92524e-14 1.54754e-13 -5.17108e-14 -83.8811 47.541 5.8956 27.0405 -26.4737 -61.6352 4.66473 -50.5959 9.85023 -9.98057e-10 -5.73363e-09 -2.17363e-10 -1.7071e-09 -9.80672e-09 -4.12027e-10 -9.98063e-10 -5.73363e-09 -2.17365e-10 -7.73091 5.47488 -0.417314 -9.98056e-10 -5.73363e-09 -2.17367e-10 -2.90554 0.965183 -0.102902 -9.9806e-10 -5.73363e-09 -2.17367e-10 -10.2786 0.731801 -0.0259123 -9.98052e-10 -5.73363e-09 -2.17374e-10 -2.22167 -0.733487 0.20892 -2.03217e-16 0.0 -3.88251e-19 6.11339 -39.5072 13.1879 -0.192399 30.658 0.473015 1.90862 -4.30112 16.0964 2.03217e-16 0.0 3.88251e-19 0.421004 0.243533 1.88207 -0.0092562 8.67639 -0.321493 0.203246 -16.9043 -0.792066
28.3777 80.4672 113.921 -2.4808 1.8365 10.812 1.08903 -15.4558 1.00325 -0.217268 -4.66653 0.239045 -24.7529 34.209 -11.2601 67.3203 -39.0853 -7.78812 -0.0 0.0 0.0 -0.0 0.0 0.0 9.05099e-14 1.31994e-13 -7.26061e-14 81.0426 40.2009 3.00369 -24.8038 -20.6811 52.2629 -0.234202 -13.6525 -1.95627 -1.46962e-10 -1.688e-09 6.24527e-10 -2.58372e-10 -2.87885e-09 1.07474e-09 -1.46957e-10 -1.68801e-09 6.24521e-10 7.73091 5.47488 0.417314 -1.46961e-10 -1.688e-09 6.24521e-10 2.90554 0.965183 0.102902 -1.46958e-10 -1.688e-09 6.24518e-10 10.2786 0.731801 0.0259123 -1.46971e-10 -1.68799e-09 6.24518e-10 2.22167 -0.733487 -0.20892 9.05889e-14 1.31993e-13 -7.28546e-14 -83.5557 47.6088 5.44055 27.0705 -26.5761 -61.7986 4.70641 -50.7479 9.90416 -5.21131e-10 -3.32978e-09 6.99881e-11 -8.975e-10 -5.73197e-09 1.00882e-10 -5.21139e-10 -3.32978e-09 6.99881e-11 -7.73091 5.47488 -0.417314 -5.2113e-10 -3.32977e-09 6.99881e-11 -2.90554 0.965183 -0.102902 -5.21133e-10 -3.32977e-09 6.99873e-11 -10.2786 0.731801 -0.0259123 -5.21128e-10 -3.32978e-09 6.99817e-11 -2.22167 -0.733487 0.20892 -2.03217e-16 0.0 -3.88251e-19 6.16808 -39.5659 13.32 -0.195378 30.8921 0.477594 1.91477 -4.40347 15.9329 2.03217e-16 0.0 3.88251e-19 0.415845 0.23982 1.80703 -0.0105769 8.79385 -0.325548 0.228753 -16.9885 -0.71406
28.353 80.4262 113.993 -2.4442 1.8783 10.7983 1.04236 -15.5561 0.945875 -0.209071 -4.67343 0.224362 -24.7564 34.2165 -11.2703 67.3757 -39.1676 -7.74539 -0.0 0.0 0.0 -0.0 0.0 0.0 1.02527e-13 1.35423e-13 -6.76621e-14 80.8264 39.9922 3.26954 -24.8671 -20.8135 52.4831 -0.245782 -13.9769 -2.00467 -3.06499e-10 -1.23393e-09 7.28409e-10 -5.35709e-10 -2.07274e-09 1.25253e-09 -3.06494e-10 -1.23394e-09 7.28401e-10 7.73091 5.47488 0.417314 -3.06497e-10 -1.23393e-09 7.28402e-10 2.90554 0.965183 0.102902 -3.06495e-10 -1.23393e-09 7.284e-10 10.2786 0.731801 0.0259123 -3.06507e-10 -1.23393e-09 7.28401e-10 2.22167 -0.733487 -0.20892 1.02559e-13 1.35422e-13 -6.7937e-14 -83.2327 47.6819 4.97771 27.1001 -26.6779 -61.9606 4.76216 -50.9493 9.97613 -5.3401e-10 -3.77357e-09 1.16322e-10 -9.21364e-10 -6.51259e-09 1.7978e-10 -5.34017e-10 -3.77357e-09 1.16326e-10 -7.73091 5.47488 -0.417314 -5.34009e-10 -3.77357e-09 1.16324e-10 -2.90554 0.965183 -0.102902 -5.34011e-10 -3.77357e-09 1.16323e-10 -10.2786 0.731801 -0.0259123 -5.34007e-10 -3.77357e-09 1.16319e-10 -2.22167 -0.733487 0.20892 -2.03217e-16 0.0 -3.88251e-19 6.21321 -39.6287 13.4328 -0.198459 31.1306 0.482276 1.92244 -4.51204 15.7716 2.03217e-16 0.0 3.88251e-19 0.413107 0.230586 1.71909 -0.0110148 8.91513 -0.32968 0.253574 -17.0729 -0.638817
28.326 80.3822 114.07 -2.4061 1.9225 10.7828 0.99545 -15.6568 0.877787 -0.195489 -4.6885 0.206903 -24.7704 34.2257 -11.2765 67.427 -39.2525 -7.6977 -0.0 0.0 0.0 -0.0 0.0 0.0 1.04864e-13 1.48294e-13 -4.65032e-14 80.5869 39.7771 3.56155 -24.9259 -20.9377 52.6882 -0.258866 -14.3284 -2.0573 -4.85095e-10 -1.31405e-09 1.05642e-09 -8.49205e-10 -2.17205e-09 1.81769e-09 -4.8509e-10 -1.31405e-09 1.05641e-09 7.73091 5.47488 0.417314 -4.85094e-10 -1.31404e-09 1.05642e-09 2.90554 0.965183 0.102902 -4.85092e-10 -1.31405e-09 1.05642e-09 10.2786 0.731801 0.0259123 -4.85101e-10 -1.31404e-09 1.05642e-09 2.22167 -0.733487 -0.20892 1.04824e-13 1.48293e-13 -4.67952e-14 -82.9075 47.7641 4.50363 27.1295 -26.7799 -62.1224 4.83027 -51.1918 10.0637 -7.78978e-10 -5.62674e-09 4.75133e-11 -1.34016e-09 -9.69841e-09 5.13271e-11 -7.78981e-10 -5.62673e-09 4.75209e-11 -7.73091 5.47488 -0.417314 -7.78975e-10 -5.62673e-09 4.75159e-11 -2.90554 0.965183 -0.102902 -7.78979e-10 -5.62673e-09 4.75153e-11 -10.2786 0.731801 -0.0259123 -7.78974e-10 -5.62673e-09 4.75137e-11 -2.22167 -0.733487 0.20892 -2.03217e-16 0.0 -3.88251e-19 6.25492 -39.6961 13.5346 -0.201645 31.3741 0.487027 1.93053 -4.62427 15.6106 2.03217e-16 0.0 3.88251e-19 0.414554 0.213357 1.62184 -0.0109633 9.04524 -0.333918 0.278172 -17.1603 -0.564732
28.2956 80.3379 114.151 -2.3695 1.9661 10.7638 0.950013 -15.7454 0.808093 -0.182761 -4.70381 0.188898 -24.7889 34.2321 -11.2808 67.4861 -39.3442 -7.63896 -0.0 0.0 0.0 -0.0 0.0 0.0 1.00474e-13 1.57786e-13 -2.09027e-14 80.3137 39.5607 3.90212 -24.9804 -21.0541 52.8797 -0.273925 -14.7262 -2.11703 -6.19744e-10 -1.80967e-09 1.4298e-09 -1.08753e-09 -2.98719e-09 2.46191e-09 -6.19739e-10 -1.80968e-09 1.42979e-09 7.73091 5.47488 0.417314 -6.19743e-10 -1.80967e-09 1.4298e-09 2.90554 0.965183 0.102902 -6.1974e-10 -1.80968e-09 1.4298e-09 10.2786 0.731801 0.0259123 -6.19748e-10 -1.80967e-09 1.42981e-09 2.22167 -0.733487 -0.20892 1.00366e-13 1.57784e-13 -2.12024e-14 -82.555 47.8456 3.98404 27.1562 -26.8738 -62.2718 4.9014 -51.4409 10.1548 -1.10098e-09 -7.99647e-09 -6.90664e-11 -1.88973e-09 -1.37643e-08 -1.62474e-10 -1.10098e-09 -7.99645e-09 -6.9055e-11 -7.73091 5.47488 -0.417314 -1.10098e-09 -7.99646e-09 -6.90633e-11 -2.90554 0.965183 -0.102902 -1.10098e-09 -7.99646e-09 -6.90638e-11 -10.2786 0.731801 -0.0259123 -1.10098e-09 -7.99645e-09 -6.90636e-11 -2.22167 -0.733487 0.20892 -2.03217e-16 0.0 -3.88251e-19 6.2909 -39.7566 13.6228 -0.204929 31.6226 0.491966 1.94164 -4.74518 15.4571 2.03217e-16 0.0 3.88251e-19 0.415108 0.209802 1.5235 -0.0107025 9.16988 -0.338204 0.302904 -17.2482 -0.490923
28.2637 80.2918 114.238 -2.3319 2.0138 10.7394 0.90788 -15.8096 0.745933 -0.177111 -4.71141 0.172574 -24.8059 34.2314 -11.2854 67.5649 -39.4468 -7.56305 -0.0 0.0 0.0 -0.0 0.0 0.0 9.23091e-14 1.51076e-13 -2.6339e-15 79.9962 39.3475 4.31346 -25.031 -21.1627 53.0592 -0.291626 -15.1901 -2.18682 -6.47437e-10 -2.60216e-09 1.66977e-09 -1.13937e-09 -4.32859e-09 2.87687e-09 -6.47432e-10 -2.60216e-09 1.66976e-09 7.73091 5.47488 0.417314 -6.47436e-10 -2.60216e-09 1.66977e-09 2.90554 0.965183 0.102902 -6.47432e-10 -2.60216e-09 1.66977e-09 10.2786 0.731801 0.0259123 -6.4744e-10 -2.60216e-09 1.66978e-09 2.22167 -0.733487 -0.20892 9.21692e-14 1.51075e-13 -2.93207e-15 -82.1505 47.9161 3.38483 27.178 -26.9515 -62.3964 4.96553 -51.6621 10.2366 -1.34498e-09 -9.98996e-09 -1.66044e-10 -2.30591e-09 -1.71852e-08 -3.39623e-10 -1.34497e-09 -9.98994e-09 -1.66031e-10 -7.73091 5.47488 -0.417314 -1.34497e-09 -9.98995e-09 -1.66041e-10 -2.90554 0.965183 -0.102902 -1.34498e-09 -9.98995e-09 -1.66042e-10 -10.2786 0.731801 -0.0259123 -1.34497e-09 -9.98994e-09 -1.66041e-10 -2.22167 -0.733487 0.20892 -2.03217e-16 0.0 -3.88251e-19 6.31874 -39.7988 13.6946 -0.208303 31.876 0.497213 1.95835 -4.87978 15.3185 2.03217e-16 0.0 3.88251e-19 0.409846 0.2416 1.4323 -0.0105173 9.27473 -0.342478 0.328121 -17.3345 -0.416507
28.2324 80.2433 114.337 -2.2971 2.0467 10.6923 0.874356 -15.8471 0.698595 -0.1826 -4.7092 0.159591 -24.8219 34.2257 -11.29 67.6684 -39.5603 -7.46843 -0.0 0.0 0.0 -0.0 0.0 0.0 7.44738e-14 1.21631e-13 5.56519e-15 79.6274 39.1375 4.80374 -25.0729 -21.2532 53.2106 -0.313894 -15.7549 -2.27219 -4.90823e-10 -4.17564e-09 1.74035e-09 -8.70788e-10 -7.03676e-09 3.00139e-09 -4.90819e-10 -4.17564e-09 1.74034e-09 7.73091 5.47488 0.417314 -4.90822e-10 -4.17564e-09 1.74034e-09 2.90554 0.965183 0.102902 -4.90817e-10 -4.17564e-09 1.74035e-09 10.2786 0.731801 0.0259123 -4.90827e-10 -4.17564e-09 1.74036e-09 2.22167 -0.733487 -0.20892 7.43595e-14 1.2163e-13 5.28371e-15 -81.6972 47.9721 2.7124 27.1934 -27.0067 -62.4851 5.01879 -51.8438 10.3044 -1.52253e-09 -1.19522e-08 -2.69055e-10 -2.60759e-09 -2.05456e-08 -5.24834e-10 -1.52253e-09 -1.19522e-08 -2.69044e-10 -7.73091 5.47488 -0.417314 -1.52253e-09 -1.19522e-08 -2.69052e-10 -2.90554 0.965183 -0.102902 -1.52253e-09 -1.19522e-08 -2.69054e-10 -10.2786 0.731801 -0.0259123 -1.52252e-09 -1.19522e-08 -2.69054e-10 -2.22167 -0.733487 0.20892 -2.03217e-16 0.0 -3.88251e-19 6.34057 -39.8148 13.7505 -0.211784 32.1353 0.502866 1.98248 -5.03256 15.1981 2.03217e-16 0.0 3.88251e-19 0.398845 0.323046 1.35393 -0.0103838 9.35136 -0.346709 0.353384 -17.4193 -0.342823
